# xmcd
#
# Track frame offsets: 
#        150
#        18757
#        37047
#        56582
#        77027
#        96022
#        119317
#        130097
#        147605
#        160737
#        183237
#        202017
#        220492
#        246190
#        259587
#        274890
#        307457
#
# Disc length: 4764 seconds
#
# Revision: 0
# Processed by: cddbd v1.4PL0 Copyright (c) Steve Scherf et al.
# Submitted via: ExactAudioCopy v0.90b4
#
DISCID=fd129a11
DTITLE=Various Artist - Montréal Jazz and Blues - Disk 2
DYEAR=2001
DGENRE=Blues
TTITLE0=Dan Beats - The Earth is The Lords
TTITLE1=Dan Beats - Run The Town
TTITLE2=Yoël Diaz - Baila Mi Raggae
TTITLE3=Yoël Diaz - St-Placide
TTITLE4=Yoël Diaz - 5 o'clock In the City
TTITLE5=Chiquitin - Y Que Paso
TTITLE6=Chiquitin - Mi Fierita
TTITLE7=Dean Cottrill - A Rose In A Hot Water Bottle
TTITLE8=Dean Cottrill - A Moment With You
TTITLE9=Mira - Color of Autumn
TTITLE10=Mira - Make Me Plenty
TTITLE11=Alex Bellegrade - Cruising On A Bumpy Road
TTITLE12=Alex Bellegrade - Waltz For Mel
TTITLE13=Chucho Valdes - Concierto Yoruba
TTITLE14=Chucho Valdes - Liza
TTITLE15=Le Jazz Big Band - Swinging Shepherd Blues
TTITLE16=Multimedia Data
EXTD=
EXTT0=
EXTT1=
EXTT2=
EXTT3=
EXTT4=
EXTT5=
EXTT6=
EXTT7=
EXTT8=
EXTT9=
EXTT10=
EXTT11=
EXTT12=
EXTT13=
EXTT14=
EXTT15=
EXTT16=
PLAYORDER=
